<?xml version="1.0" encoding="utf-8"?>
<!-- Generator: Adobe Illustrator 25.4.1, SVG Export Plug-In . SVG Version: 6.00 Build 0)  -->
<svg version="1.1" id="Layer_1" xmlns="http://www.w3.org/2000/svg" xmlns:xlink="http://www.w3.org/1999/xlink" x="0px" y="0px"
	 viewBox="0 0 64 64" style="enable-background:new 0 0 64 64;" xml:space="preserve">
<style type="text/css">
	.st0{fill:#FFFFFF;}
	.st1{fill:#D8D8D8;}
</style>
<g>
	<g>
		<path class="st0" d="M32,57.29c-12.9,0-23.55-9.67-25.09-22.15c-0.09-0.76-0.14-1.54-0.17-2.32L0,32.11
			c0,1.02,0.05,2.02,0.15,3.02c0.71,7.36,3.92,14.2,9.22,19.49C15.42,60.67,23.45,64,32,64s16.58-3.33,22.63-9.37
			c4.42-4.42,7.39-9.92,8.66-15.9l-6.73-0.7C53.85,49.08,43.89,57.29,32,57.29z"/>
		<path class="st1" d="M9.37,9.37C3.33,15.42,0,23.45,0,32c0,0.04,0,0.07,0,0.11l6.74,0.7C6.73,32.54,6.71,32.27,6.71,32
			C6.71,18.03,18.03,6.71,32,6.71S57.29,18.03,57.29,32c0,1.06-0.07,2.11-0.19,3.13c-0.12,0.98-0.31,1.95-0.54,2.89l6.73,0.7
			c0.25-1.18,0.44-2.38,0.56-3.6C63.95,34.1,64,33.05,64,32c0-8.55-3.33-16.58-9.37-22.63S40.55,0,32,0S15.42,3.33,9.37,9.37z"/>
	</g>
	<g>
		<path class="st0" d="M29.55,44.06h-6.97V19.92h6.97V44.06z M41.55,44.06h-7V19.92h7V44.06z"/>
	</g>
</g>
</svg>
