<?xml version="1.0" encoding="utf-8"?>
<!-- Generator: Adobe Illustrator 25.4.1, SVG Export Plug-In . SVG Version: 6.00 Build 0)  -->
<svg version="1.1" id="Layer_1" xmlns="http://www.w3.org/2000/svg" xmlns:xlink="http://www.w3.org/1999/xlink" x="0px" y="0px"
	 viewBox="0 0 64 64" style="enable-background:new 0 0 64 64;" xml:space="preserve">
<style type="text/css">
	.st0{fill:#FFFFFF;}
	.st1{fill:#E37777;}
	.st2{fill:#D8D8D8;}
	.st3{opacity:0.2;fill:#FFFFFF;}
</style>
<g>
	<circle class="st0" cx="31.78" cy="32.18" r="27.31"/>
	<g>
		<path class="st1" d="M6.71,32c0-12.9,9.67-23.55,22.15-25.09c0.76-0.09,1.54-0.14,2.32-0.17L31.89,0c-1.02,0-2.02,0.05-3.02,0.15
			C21.5,0.86,14.67,4.07,9.37,9.37C3.33,15.42,0,23.45,0,32s3.33,16.58,9.37,22.63c4.42,4.42,9.92,7.39,15.9,8.66l0.7-6.73
			C14.92,53.85,6.71,43.89,6.71,32z"/>
		<path class="st2" d="M54.63,9.37C48.58,3.33,40.55,0,32,0c-0.04,0-0.07,0-0.11,0l-0.7,6.74c0.27-0.01,0.54-0.03,0.82-0.03
			c13.97,0,25.29,11.32,25.29,25.29S45.97,57.29,32,57.29c-1.06,0-2.11-0.07-3.13-0.19c-0.98-0.12-1.95-0.31-2.89-0.54l-0.7,6.73
			c1.18,0.25,2.38,0.44,3.6,0.56C29.9,63.95,30.95,64,32,64c8.55,0,16.58-3.33,22.63-9.37S64,40.55,64,32S60.67,15.42,54.63,9.37z"
			/>
	</g>
	<g>
		<path class="st1" d="M19.94,29.55v-6.97h24.14v6.97H19.94z M19.94,41.55v-7h24.14v7H19.94z"/>
	</g>
	<path class="st3" d="M32,59.14C17.04,59.14,4.86,46.96,4.86,32C4.86,17.04,17.04,4.86,32,4.86c14.96,0,27.14,12.17,27.14,27.14
		C59.14,46.96,46.96,59.14,32,59.14z M32,8.91C19.27,8.91,8.91,19.27,8.91,32S19.27,55.09,32,55.09S55.09,44.73,55.09,32
		S44.73,8.91,32,8.91z"/>
</g>
</svg>
