<?xml version="1.0" encoding="utf-8"?>
<!-- Generator: Adobe Illustrator 25.4.1, SVG Export Plug-In . SVG Version: 6.00 Build 0)  -->
<svg version="1.1" id="Layer_1" xmlns="http://www.w3.org/2000/svg" xmlns:xlink="http://www.w3.org/1999/xlink" x="0px" y="0px"
	 viewBox="0 0 184 40" style="enable-background:new 0 0 184 40;" xml:space="preserve">
<style type="text/css">
	.st0{fill:#FFFFFF;}
	.st1{fill:#D8D8D8;}
	.st2{fill:#E37777;}
	.st3{opacity:0.2;fill:#FFFFFF;enable-background:new    ;}
</style>
<g>
	<path class="st0" d="M36.4,19.6l-4,4.1v7.5h-6.8V1.8h6.8v13.8l13-13.8h7.6L40.9,14.9l12.9,16.3h-7.9L36.4,19.6z"/>
</g>
<path class="st1" d="M22.4,22.3H6.2c0.3,1.3,1,2.4,2.1,3.1c1.1,0.8,2.4,1.1,4.1,1.1c1.1,0,2.1-0.2,3-0.5s1.7-0.9,2.4-1.6l3.3,3.6
	c-2,2.3-5,3.5-8.8,3.5c-2.4,0-4.6-0.5-6.4-1.4c-1.9-0.9-3.3-2.2-4.3-3.9c-1-1.7-1.5-3.6-1.5-5.7c0-2.1,0.5-4,1.5-5.7s2.4-3,4.1-3.9
	c1.7-0.9,3.7-1.4,5.8-1.4c2.1,0,4,0.4,5.7,1.4c1.7,0.9,3,2.2,4,3.9c1,1.7,1.5,3.6,1.5,5.9C22.5,20.7,22.5,21.2,22.4,22.3z M7.9,15.4
	c-0.9,0.8-1.5,1.9-1.8,3.3h10.5c-0.2-1.4-0.8-2.4-1.8-3.2c-0.9-0.8-2.1-1.2-3.5-1.2C10.1,14.2,8.9,14.6,7.9,15.4z"/>
<path class="st0" d="M89,9.8l-7.8,21.4h-6l-4.8-13.3l-5,13.3h-6L51.8,9.8h5.8l5,14.5l5.3-14.5h5.2l5.1,14.5l5.2-14.5
	C83.5,9.8,89,9.8,89,9.8z"/>
<path class="st0" d="M107.7,11.9c1.8,1.6,2.7,4,2.7,7.1v12.2h-5.8v-2.7c-1.2,2-3.3,3-6.5,3c-1.6,0-3.1-0.3-4.3-0.8
	c-1.2-0.6-2.1-1.3-2.8-2.3c-0.6-1-0.9-2.1-0.9-3.3c0-2,0.8-3.6,2.2-4.7s3.8-1.7,6.9-1.7h4.9c0-1.4-0.4-2.4-1.2-3.1s-2.1-1.1-3.7-1.1
	c-1.1,0-2.3,0.2-3.4,0.5s-2,0.8-2.8,1.5l-2.2-4.3c1.2-0.8,2.6-1.5,4.2-1.9c1.6-0.4,3.3-0.7,5-0.7C103.3,9.5,105.9,10.3,107.7,11.9z
	 M102.4,26.6c0.8-0.5,1.4-1.2,1.8-2.2v-2.2h-4.2c-2.5,0-3.8,0.8-3.8,2.5c0,0.8,0.3,1.4,0.9,1.9s1.5,0.7,2.6,0.7
	C100.6,27.4,101.6,27.1,102.4,26.6z"/>
<path class="st0" d="M113.4,1.7h6.2v29.5h-6.2V1.7z"/>
<path class="st0" d="M123.2,1.7h6.2v29.5h-6.2C123.2,31.2,123.2,1.7,123.2,1.7z"/>
<path class="st0" d="M156.4,9.5L146.8,33c-1,2.6-2.2,4.4-3.6,5.4s-3.2,1.6-5.2,1.6c-1.1,0-2.2-0.2-3.3-0.5s-2-0.8-2.7-1.5l2.3-4.6
	c0.5,0.4,1,0.8,1.6,1s1.2,0.4,1.9,0.4c0.9,0,1.5-0.2,2.1-0.6c0.5-0.4,1-1.1,1.4-2.1l0.1-0.2L132,9.5h6.4l6,15.1l6-15.1L156.4,9.5
	L156.4,9.5z"/>
<g>
	<g>
		<path class="st2" d="M155.2,16.1c0-6.5,4.9-11.9,11.1-12.6c0.4,0,0.8-0.1,1.2-0.1l0.4-3.4c-0.5,0-1,0-1.5,0.1
			c-3.7,0.4-7.1,2-9.8,4.6c-3,3-4.7,7.1-4.7,11.4s1.7,8.4,4.7,11.4c2.2,2.2,5,3.7,8,4.4l0.4-3.4C159.3,27.1,155.2,22.1,155.2,16.1z"
			/>
		<path class="st0" d="M179.3,4.7c-3-3-7.1-4.7-11.4-4.7c0,0,0,0-0.1,0l-0.4,3.4c0.1,0,0.3,0,0.4,0c7,0,12.7,5.7,12.7,12.7
			s-5.7,12.7-12.7,12.7c-0.5,0-1.1,0-1.6-0.1c-0.5-0.1-1-0.1-1.4-0.3l-0.4,3.4c0.6,0.1,1.2,0.2,1.8,0.3c0.5,0,1.1,0.1,1.6,0.1
			c4.3,0,8.3-1.7,11.4-4.7c3-3,4.7-7.1,4.7-11.4S182.3,7.8,179.3,4.7z"/>
	</g>
	<g>
		<path class="st0" d="M161.8,14.9v-3.5H174v3.5H161.8z M161.8,20.9v-3.5H174v3.5H161.8z"/>
	</g>
	<path class="st3" d="M167.9,29.8c-7.5,0-13.6-6.1-13.6-13.7s6.1-13.7,13.6-13.7s13.6,6.1,13.6,13.7S175.4,29.8,167.9,29.8z
		 M167.9,4.5c-6.4,0-11.6,5.2-11.6,11.6s5.2,11.6,11.6,11.6s11.6-5.2,11.6-11.6S174.3,4.5,167.9,4.5z"/>
</g>
</svg>
