<?xml version="1.0" encoding="utf-8"?>
<!-- Generator: Adobe Illustrator 25.4.1, SVG Export Plug-In . SVG Version: 6.00 Build 0)  -->
<svg version="1.1" id="Layer_1" xmlns="http://www.w3.org/2000/svg" xmlns:xlink="http://www.w3.org/1999/xlink" x="0px" y="0px"
	 viewBox="0 0 184 40" style="enable-background:new 0 0 184 40;" xml:space="preserve">
<style type="text/css">
	.st0{fill:#4D4D4D;}
	.st1{fill:#E37777;}
	.st2{fill:#FFFFFF;}
	.st3{fill:#D8D8D8;}
	.st4{opacity:0.2;fill:#FFFFFF;}
</style>
<g>
	<path class="st0" d="M36.42,19.65l-3.95,4.12v7.45H25.7V1.77h6.77v13.76L45.5,1.77h7.57L40.87,14.9l12.9,16.32h-7.94L36.42,19.65z"
		/>
</g>
<path class="st1" d="M22.43,22.26H6.24c0.29,1.33,0.98,2.38,2.07,3.14c1.09,0.77,2.44,1.15,4.06,1.15c1.11,0,2.1-0.17,2.96-0.5
	c0.86-0.33,1.66-0.86,2.41-1.57l3.3,3.58c-2.01,2.31-4.96,3.46-8.83,3.46c-2.41,0-4.55-0.47-6.4-1.41
	c-1.86-0.94-3.29-2.25-4.29-3.92C0.5,24.53,0,22.64,0,20.51c0-2.1,0.5-3.99,1.49-5.67c0.99-1.68,2.36-3,4.1-3.94
	c1.74-0.94,3.68-1.41,5.82-1.41c2.09,0,3.99,0.45,5.69,1.35c1.7,0.9,3.03,2.2,4,3.88c0.97,1.69,1.45,3.64,1.45,5.87
	C22.54,20.67,22.5,21.23,22.43,22.26z M7.91,15.38c-0.95,0.8-1.54,1.88-1.75,3.26H16.7c-0.21-1.35-0.8-2.43-1.75-3.24
	c-0.95-0.81-2.12-1.21-3.5-1.21C10.05,14.18,8.87,14.58,7.91,15.38z"/>
<path class="st0" d="M88.97,9.81l-7.75,21.41h-5.96l-4.81-13.29l-4.97,13.29h-5.96L51.8,9.81h5.84l5.05,14.49l5.25-14.49h5.25
	l5.09,14.49l5.21-14.49H88.97z"/>
<path class="st0" d="M107.66,11.86c1.78,1.58,2.66,3.96,2.66,7.14v12.22h-5.81v-2.67c-1.17,1.99-3.34,2.99-6.52,2.99
	c-1.64,0-3.07-0.28-4.27-0.84c-1.21-0.56-2.13-1.33-2.76-2.31c-0.64-0.98-0.95-2.1-0.95-3.34c0-1.99,0.75-3.56,2.25-4.7
	c1.5-1.14,3.81-1.71,6.94-1.71h4.93c0-1.35-0.41-2.39-1.23-3.12c-0.82-0.73-2.05-1.09-3.7-1.09c-1.14,0-2.26,0.18-3.36,0.54
	c-1.1,0.36-2.03,0.84-2.8,1.45l-2.23-4.34c1.17-0.82,2.56-1.46,4.19-1.91c1.63-0.45,3.31-0.68,5.03-0.68
	C103.34,9.49,105.89,10.28,107.66,11.86z M102.37,26.62c0.82-0.49,1.4-1.21,1.75-2.17v-2.19h-4.25c-2.54,0-3.82,0.84-3.82,2.51
	c0,0.8,0.31,1.43,0.93,1.89c0.62,0.46,1.48,0.7,2.56,0.7C100.61,27.36,101.55,27.11,102.37,26.62z"/>
<path class="st0" d="M113.38,1.69h6.2v29.53h-6.2V1.69z"/>
<path class="st0" d="M123.23,1.69h6.2v29.53h-6.2V1.69z"/>
<path class="st0" d="M156.43,9.49l-9.66,23.54c-0.98,2.56-2.19,4.36-3.64,5.4c-1.45,1.04-3.19,1.57-5.23,1.57
	c-1.11,0-2.21-0.18-3.3-0.54c-1.09-0.36-1.97-0.85-2.66-1.48l2.27-4.58c0.48,0.44,1.03,0.78,1.65,1.03
	c0.62,0.25,1.24,0.37,1.85,0.37c0.85,0,1.54-0.21,2.07-0.64c0.53-0.43,1.01-1.13,1.43-2.12l0.08-0.21l-9.26-22.35h6.4l6,15.05
	l6.04-15.05H156.43z"/>
<g>
	<ellipse class="st2" cx="167.8" cy="16.2" rx="13.74" ry="13.75"/>
	<g>
		<path class="st1" d="M155.19,16.11c0-6.5,4.86-11.86,11.14-12.63c0.38-0.05,0.77-0.07,1.16-0.08L167.85,0
			c-0.51,0-1.02,0.03-1.52,0.07c-3.7,0.36-7.14,1.97-9.8,4.64c-3.04,3.04-4.71,7.09-4.71,11.39s1.67,8.35,4.71,11.39
			c2.23,2.23,4.99,3.72,7.99,4.36l0.35-3.39C159.32,27.11,155.19,22.09,155.19,16.11z"/>
		<path class="st3" d="M179.29,4.72C176.25,1.68,172.21,0,167.91,0c-0.02,0-0.04,0-0.06,0l-0.35,3.39c0.14,0,0.27-0.01,0.41-0.01
			c7.02,0,12.72,5.7,12.72,12.73s-5.69,12.73-12.72,12.73c-0.53,0-1.06-0.03-1.58-0.1c-0.49-0.06-0.98-0.15-1.45-0.27l-0.35,3.39
			c0.59,0.13,1.2,0.22,1.81,0.28c0.52,0.05,1.05,0.08,1.58,0.08c4.3,0,8.34-1.68,11.38-4.72c3.04-3.04,4.71-7.09,4.71-11.39
			S182.33,7.76,179.29,4.72z"/>
	</g>
	<g>
		<path class="st1" d="M161.84,14.88v-3.51h12.14v3.51H161.84z M161.84,20.92v-3.52h12.14v3.52H161.84z"/>
	</g>
	<path class="st4" d="M167.91,29.77c-7.53,0-13.65-6.13-13.65-13.66c0-7.53,6.12-13.66,13.65-13.66c7.53,0,13.65,6.13,13.65,13.66
		C181.56,23.64,175.43,29.77,167.91,29.77z M167.91,4.49c-6.4,0-11.61,5.21-11.61,11.62s5.21,11.62,11.61,11.62
		s11.61-5.21,11.61-11.62S174.31,4.49,167.91,4.49z"/>
</g>
</svg>
